<svg xmlns="http://www.w3.org/2000/svg" viewBox="0 0 760 200" width="760" height="200">
  <defs>
    <linearGradient id="bgGrad2" x1="0" y1="0" x2="1" y2="1">
      <stop offset="0%" stop-color="#2f6b1f"/>
      <stop offset="100%" stop-color="#75b342"/>
    </linearGradient>
    <linearGradient id="bodyGrad2" x1="0" y1="0" x2="0" y2="1">
      <stop offset="0%" stop-color="#a4d65e"/>
      <stop offset="100%" stop-color="#6fa832"/>
    </linearGradient>
  </defs>

  <g transform="translate(10,10)">
    <rect x="0" y="0" width="180" height="180" rx="40" fill="url(#bgGrad2)"/>
    <circle cx="90" cy="98" r="70" fill="none" stroke="#fff3d6" stroke-opacity="0.25" stroke-width="2.5" stroke-dasharray="2 8" stroke-linecap="round"/>

    <ellipse cx="90" cy="145" rx="44" ry="18" fill="#5f9a2c"/>
    <ellipse cx="90" cy="142" rx="44" ry="16.5" fill="#6fa832"/>

    <path d="M 66 113 Q 51 129 52 143" fill="none" stroke="#6fa832" stroke-width="10.5" stroke-linecap="round"/>
    <path d="M 114 113 Q 129 129 128 143" fill="none" stroke="#6fa832" stroke-width="10.5" stroke-linecap="round"/>
    <circle cx="52" cy="143.5" r="6.8" fill="#a4d65e"/>
    <circle cx="128" cy="143.5" r="6.8" fill="#a4d65e"/>

    <path d="M 90 59
             C 69 59 58 76 58 100
             C 58 122.5 72 137.5 90 137.5
             C 108 137.5 122 122.5 122 100
             C 122 76 111 59 90 59 Z"
          fill="url(#bodyGrad2)"/>

    <ellipse cx="73.5" cy="86" rx="2.4" ry="2.4" fill="#5f9a2c" opacity="0.7"/>
    <ellipse cx="106.5" cy="81" rx="2.3" ry="2.3" fill="#5f9a2c" opacity="0.7"/>
    <ellipse cx="79" cy="112.5" rx="2.3" ry="2.3" fill="#5f9a2c" opacity="0.7"/>
    <ellipse cx="102" cy="116.5" rx="2.4" ry="2.4" fill="#5f9a2c" opacity="0.7"/>

    <circle cx="90" cy="66" r="25.5" fill="url(#bodyGrad2)"/>

    <path d="M 63 61.5
             C 63 39 75.5 27 90 27
             C 104.5 27 117 39 117 61.5
             C 111 55.5 103.5 52.5 90 52.5
             C 76.5 52.5 69 55.5 63 61.5 Z"
          fill="#fff3d6"/>
    <path d="M 66 57 C 72 49.5 81 45 90 45 C 99 45 108 49.5 114 57"
          fill="none" stroke="#f2dca6" stroke-width="2.3" stroke-linecap="round"/>
    <circle cx="90" cy="30" r="4.5" fill="#fff3d6"/>
    <circle cx="90" cy="54" r="4.5" fill="#e85d3d"/>

    <circle cx="90" cy="61.5" r="2.3" fill="#e85d3d"/>

    <path d="M 78 70.5 Q 82.5 74 87 70.5" fill="none" stroke="#2f4a17" stroke-width="2.3" stroke-linecap="round"/>
    <path d="M 93 70.5 Q 97.5 74 102 70.5" fill="none" stroke="#2f4a17" stroke-width="2.3" stroke-linecap="round"/>
    <path d="M 82.5 78 Q 90 83 97.5 78" fill="none" stroke="#2f4a17" stroke-width="2.3" stroke-linecap="round"/>
  </g>

  <text x="210" y="95" font-family="'Segoe UI', Helvetica, Arial, sans-serif" font-size="52" font-weight="700" fill="#2f6b1f">Gherkin<tspan fill="#75b342">Guru</tspan></text>
  <text x="212" y="128" font-family="'Segoe UI', Helvetica, Arial, sans-serif" font-size="18" fill="#5f7a52">Given / When / Then — with zero cloud dependency</text>
</svg>
